<svg width="89" height="32" viewBox="0 0 89 32" fill="none" xmlns="http://www.w3.org/2000/svg">
<ellipse cx="15.6068" cy="15.9815" rx="15.6068" ry="15.1254" fill="#F46524"/>
<path d="M11.3898 25H15.273V18.4891H18.1069L21.5866 25H25.8733L21.9722 17.8614C24.0618 16.9645 25.2187 15.144 25.2187 12.6329C25.2187 8.98289 22.8062 6.63323 18.6361 6.63323H11.3898V25ZM15.273 15.3682V9.80796H17.8917C20.1337 9.80796 21.2189 10.8034 21.2189 12.6329C21.2189 14.4535 20.1337 15.3682 17.9096 15.3682H15.273ZM33.8931 25.269C38.0723 25.269 40.673 22.4082 40.673 18.1663C40.673 13.8974 38.0723 11.0456 33.8931 11.0456C29.714 11.0456 27.1132 13.8974 27.1132 18.1663C27.1132 22.4082 29.714 25.269 33.8931 25.269ZM33.911 22.3096C31.9829 22.3096 30.9964 20.5428 30.9964 18.1394C30.9964 15.7359 31.9829 13.9602 33.911 13.9602C35.8033 13.9602 36.7898 15.7359 36.7898 18.1394C36.7898 20.5428 35.8033 22.3096 33.911 22.3096ZM49.3811 25.269C53.5603 25.269 56.161 22.4082 56.161 18.1663C56.161 13.8974 53.5603 11.0456 49.3811 11.0456C45.2019 11.0456 42.6012 13.8974 42.6012 18.1663C42.6012 22.4082 45.2019 25.269 49.3811 25.269ZM49.399 22.3096C47.4709 22.3096 46.4844 20.5428 46.4844 18.1394C46.4844 15.7359 47.4709 13.9602 49.399 13.9602C51.2913 13.9602 52.2778 15.7359 52.2778 18.1394C52.2778 20.5428 51.2913 22.3096 49.399 22.3096ZM58.6452 11.2249V25.6188C58.6452 26.6591 58.2058 27.1793 56.9771 27.1793C56.8157 27.1793 56.6722 27.1793 56.4749 27.1613V30.1477C56.7529 30.1567 56.9771 30.1657 57.2462 30.1657C60.4926 30.1657 62.4656 28.8742 62.4656 25.6816V11.2249H58.6452ZM60.5464 9.44923C61.6854 9.44923 62.6181 8.57932 62.6181 7.51211C62.6181 6.45387 61.6854 5.58396 60.5464 5.58396C59.4165 5.58396 58.4838 6.45387 58.4838 7.51211C58.4838 8.57932 59.4165 9.44923 60.5464 9.44923ZM69.3464 17.0363C69.3554 15.2606 70.4406 14.2203 72.001 14.2203C73.5525 14.2203 74.4673 15.2158 74.4583 16.9107V25H78.2787V16.2292C78.2877 13.0006 76.3864 11.0456 73.5166 11.0456C71.427 11.0456 70.028 12.0321 69.4002 13.6553H69.2388V6.63323H65.526V25H69.3464V17.0363Z" fill="white"/>
</svg>
