<svg width="160" height="35" viewBox="0 0 160 35" fill="none" xmlns="http://www.w3.org/2000/svg">
<path d="M0 -4.57764e-05C7.32671 -4.54561e-05 13.25 4.06449 13.25 11.5659L13.25 21.434C13.25 28.9354 19.1733 35 26.5 35C33.8267 35 39.75 28.9354 39.75 21.434L39.75 11.5659C39.75 4.06449 45.6733 -4.37799e-05 53 -4.34597e-05" fill="white"/>
<circle cx="26.5" cy="22.5" r="11.5" fill="#F46524"/>
<g clip-path="url(#clip0_463_4135)">
<path d="M26 16.75V27.25" stroke="white" stroke-width="2.25" stroke-linecap="round" stroke-linejoin="round"/>
<path d="M20.75 22H31.25" stroke="white" stroke-width="2.25" stroke-linecap="round" stroke-linejoin="round"/>
</g>
<path d="M45.4653 27L46.3332 24.4978H50.0264L50.8896 27H52.4039L49.0015 17.5454H47.3534L43.9511 27H45.4653ZM46.7487 23.2975L48.1428 19.2627H48.2167L49.6109 23.2975H46.7487ZM56.1986 27.1384C57.4912 27.1384 57.999 26.349 58.2483 25.8966H58.3637V27H59.7117V17.5454H58.3314V21.0585H58.2483C57.999 20.62 57.5281 19.8167 56.2078 19.8167C54.4951 19.8167 53.2348 21.1693 53.2348 23.4683C53.2348 25.7627 54.4767 27.1384 56.1986 27.1384ZM56.5033 25.9612C55.2707 25.9612 54.629 24.8764 54.629 23.4545C54.629 22.0465 55.2568 20.9893 56.5033 20.9893C57.7082 20.9893 58.3545 21.9726 58.3545 23.4545C58.3545 24.9456 57.6943 25.9612 56.5033 25.9612ZM64.3363 27.1384C65.6289 27.1384 66.1367 26.349 66.386 25.8966H66.5014V27H67.8494V17.5454H66.4691V21.0585H66.386C66.1367 20.62 65.6658 19.8167 64.3455 19.8167C62.6328 19.8167 61.3725 21.1693 61.3725 23.4683C61.3725 25.7627 62.6143 27.1384 64.3363 27.1384ZM64.641 25.9612C63.4084 25.9612 62.7667 24.8764 62.7667 23.4545C62.7667 22.0465 63.3945 20.9893 64.641 20.9893C65.8459 20.9893 66.4922 21.9726 66.4922 23.4545C66.4922 24.9456 65.832 25.9612 64.641 25.9612ZM81.0018 17.5454H79.5891V24.4886H79.5014L74.6911 17.5454H73.3707V27H74.7972V20.066H74.8849L79.6907 27H81.0018V17.5454ZM86.028 27.1431C87.5745 27.1431 88.6686 26.3813 88.9825 25.2272L87.676 24.9918C87.4268 25.6612 86.8266 26.0028 86.0418 26.0028C84.86 26.0028 84.066 25.2365 84.029 23.87H89.0702V23.3806C89.0702 20.8185 87.5376 19.8167 85.931 19.8167C83.9552 19.8167 82.6533 21.3217 82.6533 23.5007C82.6533 25.7027 83.9367 27.1431 86.028 27.1431ZM84.0336 22.8359C84.089 21.8295 84.8184 20.957 85.9403 20.957C87.0113 20.957 87.713 21.751 87.7176 22.8359H84.0336ZM92.1263 27H93.5297L94.9701 21.8803H95.0763L96.5166 27H97.9246L100.007 19.909H98.5802L97.1998 25.0933H97.1306L95.7456 19.909H94.3192L92.925 25.1164H92.8557L91.4662 19.909H90.0397L92.1263 27ZM104.868 17.5454V27H106.225V20.1537H106.313L109.101 26.9861H110.228L113.016 20.1583H113.104V27H114.461V17.5454H112.73L109.72 24.8948H109.609L106.599 17.5454H104.868ZM119.48 27.1431C121.027 27.1431 122.121 26.3813 122.435 25.2272L121.128 24.9918C120.879 25.6612 120.279 26.0028 119.494 26.0028C118.312 26.0028 117.518 25.2365 117.481 23.87H122.522V23.3806C122.522 20.8185 120.99 19.8167 119.383 19.8167C117.407 19.8167 116.105 21.3217 116.105 23.5007C116.105 25.7027 117.389 27.1431 119.48 27.1431ZM117.486 22.8359C117.541 21.8295 118.271 20.957 119.392 20.957C120.463 20.957 121.165 21.751 121.17 22.8359H117.486ZM124.054 27H125.434V22.6282C125.434 21.6725 126.104 21.0078 126.888 21.0078C127.655 21.0078 128.186 21.5156 128.186 22.2865V27H129.561V22.4804C129.561 21.6264 130.083 21.0078 130.983 21.0078C131.713 21.0078 132.313 21.414 132.313 22.3742V27H133.693V22.245C133.693 20.6246 132.788 19.8167 131.505 19.8167C130.485 19.8167 129.718 20.3061 129.377 21.0632H129.303C128.994 20.2876 128.343 19.8167 127.396 19.8167C126.459 19.8167 125.762 20.283 125.467 21.0632H125.379V19.909H124.054V27ZM135.654 27H137.002V25.8966H137.117C137.367 26.349 137.874 27.1384 139.167 27.1384C140.884 27.1384 142.131 25.7627 142.131 23.4683C142.131 21.1693 140.866 19.8167 139.153 19.8167C137.838 19.8167 137.362 20.62 137.117 21.0585H137.034V17.5454H135.654V27ZM137.007 23.4545C137.007 21.9726 137.653 20.9893 138.858 20.9893C140.109 20.9893 140.737 22.0465 140.737 23.4545C140.737 24.8764 140.09 25.9612 138.858 25.9612C137.671 25.9612 137.007 24.9456 137.007 23.4545ZM146.737 27.1431C148.283 27.1431 149.378 26.3813 149.691 25.2272L148.385 24.9918C148.136 25.6612 147.536 26.0028 146.751 26.0028C145.569 26.0028 144.775 25.2365 144.738 23.87H149.779V23.3806C149.779 20.8185 148.247 19.8167 146.64 19.8167C144.664 19.8167 143.362 21.3217 143.362 23.5007C143.362 25.7027 144.646 27.1431 146.737 27.1431ZM144.743 22.8359C144.798 21.8295 145.527 20.957 146.649 20.957C147.72 20.957 148.422 21.751 148.427 22.8359H144.743ZM151.311 27H152.691V22.6697C152.691 21.7418 153.407 21.0724 154.385 21.0724C154.672 21.0724 154.995 21.1232 155.105 21.1555V19.8352C154.967 19.8167 154.695 19.8029 154.519 19.8029C153.688 19.8029 152.977 20.2737 152.719 21.0355H152.645V19.909H151.311V27Z" fill="#F46524"/>
<defs>
<clipPath id="clip0_463_4135">
<path d="M20 22C20 18.6862 22.6863 16 26 16V16C29.3137 16 32 18.6862 32 22V22C32 25.3137 29.3137 28 26 28V28C22.6863 28 20 25.3137 20 22V22Z" fill="white"/>
</clipPath>
</defs>
</svg>
