<svg width="53" height="35" viewBox="0 0 53 35" fill="none" xmlns="http://www.w3.org/2000/svg">
<path d="M0 -4.57764e-05C7.32671 -4.54561e-05 13.25 4.06449 13.25 11.5659L13.25 21.434C13.25 28.9354 19.1733 35 26.5 35C33.8267 35 39.75 28.9354 39.75 21.434L39.75 11.5659C39.75 4.06449 45.6733 -4.37799e-05 53 -4.34597e-05" fill="white"/>
<circle cx="26.5" cy="22.5" r="11.5" fill="#F46524"/>
<g clip-path="url(#clip0_463_4136)">
<path d="M26 16.75V27.25" stroke="white" stroke-width="2.25" stroke-linecap="round" stroke-linejoin="round"/>
<path d="M20.75 22H31.25" stroke="white" stroke-width="2.25" stroke-linecap="round" stroke-linejoin="round"/>
</g>
<defs>
<clipPath id="clip0_463_4136">
<path d="M20 20.5C20 18.0147 22.0147 16 24.5 16H27.5C29.9853 16 32 18.0147 32 20.5V23.5C32 25.9852 29.9853 28 27.5 28H24.5C22.0147 28 20 25.9852 20 23.5V20.5Z" fill="white"/>
</clipPath>
</defs>
</svg>
