<svg width="152" height="114" viewBox="0 0 152 114" fill="none" xmlns="http://www.w3.org/2000/svg">
<rect opacity="0.2" x="0.636197" y="1.32126" width="150.728" height="112.043" rx="18.4497" fill="#F5F8FF" stroke="#303030" stroke-width="1.27239" stroke-linejoin="bevel" stroke-dasharray="6.36 6.36"/>
<path opacity="0.5" d="M60.5097 69.639V75.742C60.5097 77.0254 59.6234 77.9487 58.183 77.9487C56.7473 77.9487 55.8563 77.0254 55.8563 75.742V69.639H54.4298V75.8574C54.4298 77.8425 55.9163 79.2505 58.183 79.2505C60.4497 79.2505 61.9408 77.8425 61.9408 75.8574V69.639H60.5097ZM63.904 81.7527H65.2843V77.9902H65.3674C65.6167 78.4426 66.1245 79.2321 67.4171 79.2321C69.1345 79.2321 70.3809 77.8564 70.3809 75.562C70.3809 73.263 69.116 71.9103 67.4033 71.9103C66.0876 71.9103 65.6121 72.7136 65.3674 73.1522H65.252V72.0027H63.904V81.7527ZM65.2566 75.5481C65.2566 74.0662 65.9029 73.0829 67.1078 73.0829C68.3589 73.0829 68.9867 74.1401 68.9867 75.5481C68.9867 76.97 68.3404 78.0549 67.1078 78.0549C65.9214 78.0549 65.2566 77.0392 65.2566 75.5481ZM73.3078 69.639H71.9274V79.0936H73.3078V69.639ZM78.1516 79.2367C80.1505 79.2367 81.457 77.7733 81.457 75.5804C81.457 73.3738 80.1505 71.9103 78.1516 71.9103C76.1527 71.9103 74.8462 73.3738 74.8462 75.5804C74.8462 77.7733 76.1527 79.2367 78.1516 79.2367ZM78.1562 78.0779C76.8497 78.0779 76.2404 76.9377 76.2404 75.5758C76.2404 74.2186 76.8497 73.0644 78.1562 73.0644C79.4534 73.0644 80.0628 74.2186 80.0628 75.5758C80.0628 76.9377 79.4534 78.0779 78.1562 78.0779ZM85.0613 79.2505C86.2339 79.2505 86.894 78.655 87.1572 78.1241H87.2126V79.0936H88.5606V74.3848C88.5606 72.3212 86.9356 71.9103 85.8092 71.9103C84.5258 71.9103 83.344 72.4274 82.8823 73.72L84.1796 74.0154C84.3827 73.5122 84.8997 73.0275 85.8276 73.0275C86.7186 73.0275 87.1756 73.4938 87.1756 74.297V74.3294C87.1756 74.8326 86.6586 74.8233 85.3845 74.9711C84.0411 75.128 82.6653 75.4789 82.6653 77.09C82.6653 78.4842 83.7133 79.2505 85.0613 79.2505ZM85.3614 78.1426C84.5812 78.1426 84.018 77.7917 84.018 77.1085C84.018 76.3698 84.6735 76.1067 85.4722 76.0005C85.92 75.9405 86.9818 75.8205 87.1803 75.622V76.536C87.1803 77.3762 86.5109 78.1426 85.3614 78.1426ZM93.0536 79.2321C94.3462 79.2321 94.854 78.4426 95.1033 77.9902H95.2187V79.0936H96.5667V69.639H95.1864V73.1522H95.1033C94.854 72.7136 94.3831 71.9103 93.0628 71.9103C91.3501 71.9103 90.0898 73.263 90.0898 75.562C90.0898 77.8564 91.3316 79.2321 93.0536 79.2321ZM93.3583 78.0549C92.1257 78.0549 91.484 76.97 91.484 75.5481C91.484 74.1401 92.1118 73.0829 93.3583 73.0829C94.5632 73.0829 95.2095 74.0662 95.2095 75.5481C95.2095 77.0392 94.5493 78.0549 93.3583 78.0549ZM58.9413 85.639H57.5148V95.0936H58.9413V85.639ZM60.9079 95.0936H62.2882V90.7218C62.2882 89.7662 62.9576 89.1014 63.7424 89.1014C64.5087 89.1014 65.0396 89.6092 65.0396 90.3801V95.0936H66.4154V90.574C66.4154 89.72 66.937 89.1014 67.8372 89.1014C68.5666 89.1014 69.1668 89.5076 69.1668 90.4679V95.0936H70.5471V90.3386C70.5471 88.7182 69.6423 87.9103 68.3589 87.9103C67.3386 87.9103 66.5723 88.3997 66.2307 89.1568H66.1568C65.8475 88.3812 65.1966 87.9103 64.2502 87.9103C63.3131 87.9103 62.616 88.3766 62.3205 89.1568H62.2328V88.0027H60.9079V95.0936ZM74.4607 95.2505C75.6333 95.2505 76.2935 94.655 76.5566 94.1241H76.612V95.0936H77.96V90.3848C77.96 88.3212 76.335 87.9103 75.2086 87.9103C73.9252 87.9103 72.7434 88.4274 72.2817 89.72L73.579 90.0154C73.7821 89.5122 74.2991 89.0275 75.2271 89.0275C76.118 89.0275 76.5751 89.4938 76.5751 90.297V90.3294C76.5751 90.8326 76.058 90.8233 74.7839 90.9711C73.4405 91.128 72.0648 91.4789 72.0648 93.09C72.0648 94.4842 73.1127 95.2505 74.4607 95.2505ZM74.7608 94.1426C73.9806 94.1426 73.4174 93.7917 73.4174 93.1085C73.4174 92.3698 74.0729 92.1067 74.8716 92.0005C75.3194 91.9405 76.3812 91.8205 76.5797 91.622V92.536C76.5797 93.3762 75.9103 94.1426 74.7608 94.1426ZM82.7715 97.9004C84.5766 97.9004 85.9707 97.074 85.9707 95.2505V88.0027H84.6181V89.1522H84.5166C84.2719 88.7136 83.7825 87.9103 82.4622 87.9103C80.7495 87.9103 79.4892 89.263 79.4892 91.5204C79.4892 93.7825 80.7772 94.9874 82.453 94.9874C83.7548 94.9874 84.258 94.2534 84.5073 93.801H84.595V95.1951C84.595 96.3077 83.8333 96.7878 82.7854 96.7878C81.6359 96.7878 81.1881 96.2108 80.9434 95.8045L79.757 96.2939C80.1309 97.1617 81.0773 97.9004 82.7715 97.9004ZM82.7577 93.8425C81.5251 93.8425 80.8834 92.8961 80.8834 91.5019C80.8834 90.1401 81.5112 89.0829 82.7577 89.0829C83.9626 89.0829 84.6089 90.0662 84.6089 91.5019C84.6089 92.9654 83.9487 93.8425 82.7577 93.8425ZM90.8781 95.2367C92.4246 95.2367 93.5187 94.475 93.8326 93.3208L92.5261 93.0854C92.2769 93.7548 91.6767 94.0964 90.8919 94.0964C89.7101 94.0964 88.9161 93.3301 88.8791 91.9636H93.9203V91.4742C93.9203 88.9121 92.3877 87.9103 90.7811 87.9103C88.8053 87.9103 87.5034 89.4153 87.5034 91.5943C87.5034 93.7963 88.7868 95.2367 90.8781 95.2367ZM88.8837 90.9295C88.9391 89.9231 89.6685 89.0506 90.7903 89.0506C91.8614 89.0506 92.5631 89.8446 92.5677 90.9295H88.8837Z" fill="#122043"/>
<g clip-path="url(#clip0_65_2253)">
<path d="M64.4096 28.1181L75.7099 22.783H72.5173L67.6863 18.6662C67.4762 18.4562 67.1822 18.3721 66.8881 18.3721H58.9484C58.2343 18.3721 57.6882 18.9183 57.6882 19.6323V28.1181H64.4096Z" fill="#153068"/>
<path d="M90.875 28.1181H94.3198V24.0432C94.3198 23.3291 93.7736 22.783 93.0595 22.783H88.3546L90.875 28.1181Z" fill="#153068"/>
<path d="M86.8003 18.9603C86.4642 18.2461 85.582 17.9101 84.8259 18.2881L63.4856 28.3702H91.2112L86.8003 18.9603Z" fill="#D4E1F4"/>
<path d="M95.664 28.2861C95.4119 28.034 95.0759 27.908 94.7398 27.908H94.3197H90.875H64.4097H57.6883H57.2682C56.9321 27.908 56.5961 28.034 56.3441 28.2861C56.092 28.5382 55.966 28.8742 56.0079 29.2103L57.2682 52.0629C57.3101 52.735 57.8563 53.2392 58.5284 53.2392H93.4795C94.1516 53.2392 94.6977 52.7351 94.7397 52.0629L96 29.2103C96 28.8742 95.874 28.5381 95.664 28.2861Z" fill="#204289"/>
</g>
<defs>
<clipPath id="clip0_65_2253">
<rect width="40" height="40" fill="white" transform="translate(56 15.6851)"/>
</clipPath>
</defs>
</svg>
