<svg width="156" height="84" viewBox="0 0 156 84" fill="none" xmlns="http://www.w3.org/2000/svg">
<rect x="0.5" y="0.5" width="155" height="83" rx="7.5" fill="white" stroke="#E3DFDF"/>
<g clip-path="url(#clip0_463_4235)">
<path d="M71.046 24.4598L77.8262 21.2588H75.9106L73.012 18.7887C72.886 18.6627 72.7096 18.6123 72.5331 18.6123H67.7693C67.3408 18.6123 67.0132 18.9399 67.0132 19.3684V24.4598H71.046Z" fill="#153068"/>
<path d="M86.9253 24.4599H88.9922V22.0149C88.9922 21.5864 88.6645 21.2588 88.236 21.2588H85.4131L86.9253 24.4599Z" fill="#153068"/>
<path d="M84.48 18.9651C84.2784 18.5366 83.7491 18.335 83.2954 18.5619L70.4912 24.6111H87.1266L84.48 18.9651Z" fill="#F46524"/>
<path d="M89.7981 24.5606C89.6469 24.4093 89.4453 24.3337 89.2436 24.3337H88.9916H86.9248H71.0456H67.0127H66.7607C66.559 24.3337 66.3574 24.4093 66.2062 24.5606C66.0549 24.7118 65.9793 24.9134 66.0045 25.1151L66.7607 38.8267C66.7858 39.2299 67.1135 39.5324 67.5168 39.5324H88.4874C88.8907 39.5324 89.2184 39.23 89.2436 38.8267L89.9998 25.1151C89.9998 24.9134 89.9242 24.7118 89.7981 24.5606Z" fill="#204289"/>
</g>
<path d="M20.3305 54.5455V60.6484C20.3305 61.9318 19.4442 62.8551 18.0038 62.8551C16.5681 62.8551 15.6771 61.9318 15.6771 60.6484V54.5455H14.2506V60.7638C14.2506 62.7489 15.7371 64.157 18.0038 64.157C20.2705 64.157 21.7616 62.7489 21.7616 60.7638V54.5455H20.3305ZM23.7248 66.6591H25.1051V62.8967H25.1882C25.4375 63.3491 25.9453 64.1385 27.2379 64.1385C28.9553 64.1385 30.2017 62.7628 30.2017 60.4684C30.2017 58.1694 28.9368 56.8168 27.2241 56.8168C25.9084 56.8168 25.4329 57.62 25.1882 58.0586H25.0728V56.9091H23.7248V66.6591ZM25.0774 60.4545C25.0774 58.9727 25.7237 57.9893 26.9286 57.9893C28.1797 57.9893 28.8075 59.0465 28.8075 60.4545C28.8075 61.8764 28.1612 62.9613 26.9286 62.9613C25.7422 62.9613 25.0774 61.9457 25.0774 60.4545ZM33.1286 54.5455H31.7482V64H33.1286V54.5455ZM37.9724 64.1431C39.9713 64.1431 41.2778 62.6797 41.2778 60.4869C41.2778 58.2802 39.9713 56.8168 37.9724 56.8168C35.9735 56.8168 34.667 58.2802 34.667 60.4869C34.667 62.6797 35.9735 64.1431 37.9724 64.1431ZM37.977 62.9844C36.6705 62.9844 36.0612 61.8441 36.0612 60.4822C36.0612 59.125 36.6705 57.9709 37.977 57.9709C39.2742 57.9709 39.8836 59.125 39.8836 60.4822C39.8836 61.8441 39.2742 62.9844 37.977 62.9844ZM44.8821 64.157C46.0547 64.157 46.7148 63.5614 46.978 63.0305H47.0334V64H48.3814V59.2912C48.3814 57.2276 46.7564 56.8168 45.63 56.8168C44.3466 56.8168 43.1648 57.3338 42.7031 58.6264L44.0004 58.9219C44.2035 58.4187 44.7205 57.9339 45.6484 57.9339C46.5394 57.9339 46.9964 58.4002 46.9964 59.2035V59.2358C46.9964 59.739 46.4794 59.7298 45.2053 59.8775C43.8619 60.0344 42.4862 60.3853 42.4862 61.9964C42.4862 63.3906 43.5341 64.157 44.8821 64.157ZM45.1822 63.049C44.402 63.049 43.8388 62.6982 43.8388 62.0149C43.8388 61.2763 44.4943 61.0131 45.293 60.907C45.7408 60.8469 46.8026 60.7269 47.0011 60.5284V61.4425C47.0011 62.2827 46.3317 63.049 45.1822 63.049ZM52.8744 64.1385C54.167 64.1385 54.6748 63.3491 54.9241 62.8967H55.0395V64H56.3875V54.5455H55.0072V58.0586H54.9241C54.6748 57.62 54.2039 56.8168 52.8836 56.8168C51.1709 56.8168 49.9106 58.1694 49.9106 60.4684C49.9106 62.7628 51.1524 64.1385 52.8744 64.1385ZM53.1791 62.9613C51.9465 62.9613 51.3048 61.8764 51.3048 60.4545C51.3048 59.0465 51.9326 57.9893 53.1791 57.9893C54.384 57.9893 55.0303 58.9727 55.0303 60.4545C55.0303 61.9457 54.3701 62.9613 53.1791 62.9613ZM65.1727 56.9091H63.6446V56.272C63.6446 55.6442 63.9031 55.3026 64.5771 55.3026C64.8634 55.3026 65.0665 55.3672 65.1958 55.4087L65.5189 54.2915C65.325 54.2177 64.9234 54.1023 64.3648 54.1023C63.243 54.1023 62.2597 54.7578 62.2597 56.0874V56.9091H61.1656V58.017H62.2597V64H63.6446V58.017H65.1727V56.9091ZM66.5969 64H67.9772V59.6697C67.9772 58.7418 68.6927 58.0724 69.6714 58.0724C69.9577 58.0724 70.2808 58.1232 70.3916 58.1555V56.8352C70.2531 56.8168 69.9807 56.8029 69.8053 56.8029C68.9743 56.8029 68.2634 57.2738 68.0049 58.0355H67.931V56.9091H66.5969V64ZM74.3191 64.1431C76.318 64.1431 77.6245 62.6797 77.6245 60.4869C77.6245 58.2802 76.318 56.8168 74.3191 56.8168C72.3201 56.8168 71.0137 58.2802 71.0137 60.4869C71.0137 62.6797 72.3201 64.1431 74.3191 64.1431ZM74.3237 62.9844C73.0172 62.9844 72.4078 61.8441 72.4078 60.4822C72.4078 59.125 73.0172 57.9709 74.3237 57.9709C75.6209 57.9709 76.2303 59.125 76.2303 60.4822C76.2303 61.8441 75.6209 62.9844 74.3237 62.9844ZM79.1652 64H80.5455V59.6282C80.5455 58.6726 81.2149 58.0078 81.9997 58.0078C82.7661 58.0078 83.297 58.5156 83.297 59.2866V64H84.6727V59.4805C84.6727 58.6264 85.1943 58.0078 86.0945 58.0078C86.824 58.0078 87.4241 58.4141 87.4241 59.3743V64H88.8044V59.245C88.8044 57.6246 87.8996 56.8168 86.6162 56.8168C85.596 56.8168 84.8296 57.3061 84.488 58.0632H84.4142C84.1048 57.2876 83.4539 56.8168 82.5075 56.8168C81.5704 56.8168 80.8733 57.283 80.5779 58.0632H80.4901V56.9091H79.1652V64ZM94.2057 64H99.9163V62.772H95.6322V54.5455H94.2057V64ZM101.433 64H102.813V56.9091H101.433V64ZM102.13 55.815C102.605 55.815 103.002 55.4457 103.002 54.9933C103.002 54.5408 102.605 54.1669 102.13 54.1669C101.65 54.1669 101.257 54.5408 101.257 54.9933C101.257 55.4457 101.65 55.815 102.13 55.815ZM104.781 64H106.129V62.8967H106.244C106.494 63.3491 107.001 64.1385 108.294 64.1385C110.011 64.1385 111.258 62.7628 111.258 60.4684C111.258 58.1694 109.993 56.8168 108.28 56.8168C106.964 56.8168 106.489 57.62 106.244 58.0586H106.161V54.5455H104.781V64ZM106.134 60.4545C106.134 58.9727 106.78 57.9893 107.985 57.9893C109.236 57.9893 109.864 59.0465 109.864 60.4545C109.864 61.8764 109.217 62.9613 107.985 62.9613C106.798 62.9613 106.134 61.9457 106.134 60.4545ZM112.808 64H114.188V59.6697C114.188 58.7418 114.904 58.0724 115.882 58.0724C116.169 58.0724 116.492 58.1232 116.603 58.1555V56.8352C116.464 56.8168 116.192 56.8029 116.016 56.8029C115.185 56.8029 114.474 57.2738 114.216 58.0355H114.142V56.9091H112.808V64ZM119.797 64.157C120.97 64.157 121.63 63.5614 121.893 63.0305H121.948V64H123.296V59.2912C123.296 57.2276 121.671 56.8168 120.545 56.8168C119.262 56.8168 118.08 57.3338 117.618 58.6264L118.915 58.9219C119.119 58.4187 119.636 57.9339 120.563 57.9339C121.454 57.9339 121.911 58.4002 121.911 59.2035V59.2358C121.911 59.739 121.394 59.7298 120.12 59.8775C118.777 60.0344 117.401 60.3853 117.401 61.9964C117.401 63.3906 118.449 64.157 119.797 64.157ZM120.097 63.049C119.317 63.049 118.754 62.6982 118.754 62.0149C118.754 61.2763 119.409 61.0131 120.208 60.907C120.656 60.8469 121.718 60.7269 121.916 60.5284V61.4425C121.916 62.2827 121.247 63.049 120.097 63.049ZM125.135 64H126.515V59.6697C126.515 58.7418 127.231 58.0724 128.21 58.0724C128.496 58.0724 128.819 58.1232 128.93 58.1555V56.8352C128.791 56.8168 128.519 56.8029 128.343 56.8029C127.512 56.8029 126.801 57.2738 126.543 58.0355H126.469V56.9091H125.135V64ZM131.213 66.6591C132.353 66.6591 133.073 66.0636 133.484 64.9464L136.415 56.9229L134.924 56.9091L133.128 62.4119H133.055L131.259 56.9091H129.781L132.376 64.0923L132.205 64.5632C131.854 65.505 131.36 65.5835 130.603 65.3757L130.271 66.5067C130.437 66.5806 130.797 66.6591 131.213 66.6591Z" fill="#303030"/>
<defs>
<clipPath id="clip0_463_4235">
<rect width="24" height="24" fill="white" transform="translate(66 17)"/>
</clipPath>
</defs>
</svg>
