<svg width="163" height="84" viewBox="0 0 163 84" fill="none" xmlns="http://www.w3.org/2000/svg">
<rect x="0.5" y="0.5" width="162" height="83" rx="7.5" fill="white" stroke="#E3DFDF"/>
<path d="M55.8913 57.62C55.5682 55.598 53.9847 54.4162 51.9858 54.4162C49.5391 54.4162 47.734 56.2489 47.734 59.2727C47.734 62.2965 49.5298 64.1293 51.9858 64.1293C54.0632 64.1293 55.582 62.8274 55.8913 60.9577L54.451 60.9531C54.2063 62.1626 53.1907 62.8274 51.995 62.8274C50.3746 62.8274 49.1513 61.5856 49.1513 59.2727C49.1513 56.9783 50.37 55.718 51.9996 55.718C53.2045 55.718 54.2156 56.3967 54.451 57.62H55.8913ZM58.8678 54.5455H57.4875V64H58.8678V54.5455ZM60.7248 64H62.1051V56.9091H60.7248V64ZM61.4219 55.815C61.8974 55.815 62.2944 55.4457 62.2944 54.9933C62.2944 54.5408 61.8974 54.1669 61.4219 54.1669C60.9418 54.1669 60.5494 54.5408 60.5494 54.9933C60.5494 55.4457 60.9418 55.815 61.4219 55.815ZM66.949 64.1431C68.6247 64.1431 69.7096 63.1367 69.8619 61.7564H68.5186C68.3431 62.5227 67.7476 62.9751 66.9582 62.9751C65.7902 62.9751 65.0377 62.0011 65.0377 60.4545C65.0377 58.9357 65.8041 57.9801 66.9582 57.9801C67.8353 57.9801 68.3708 58.5341 68.5186 59.1989H69.8619C69.7142 57.7678 68.5463 56.8168 66.9351 56.8168C64.9362 56.8168 63.6436 58.3217 63.6436 60.4869C63.6436 62.6243 64.89 64.1431 66.949 64.1431ZM71.3381 64H72.7184V61.484L73.4062 60.7962L75.8161 64H77.5103L74.445 59.9513L77.3164 56.9091H75.6637L72.8384 59.9098H72.7184V54.5455H71.3381V64ZM82.1256 64H83.5521V60.6761H85.491C87.6839 60.6761 88.7687 59.3512 88.7687 57.6062C88.7687 55.8658 87.6931 54.5455 85.4956 54.5455H82.1256V64ZM83.5521 59.4666V55.7688H85.3433C86.7559 55.7688 87.333 56.5352 87.333 57.6062C87.333 58.6772 86.7559 59.4666 85.3618 59.4666H83.5521ZM91.7106 59.7898C91.7106 58.6587 92.4261 58.0124 93.4094 58.0124C94.3604 58.0124 94.9283 58.6172 94.9283 59.6559V64H96.3086V59.4897C96.3086 57.7216 95.3391 56.8168 93.8803 56.8168C92.777 56.8168 92.1122 57.2969 91.7798 58.0632H91.6921V54.5455H90.3303V64H91.7106V59.7898ZM101.137 64.1431C103.136 64.1431 104.443 62.6797 104.443 60.4869C104.443 58.2802 103.136 56.8168 101.137 56.8168C99.1385 56.8168 97.832 58.2802 97.832 60.4869C97.832 62.6797 99.1385 64.1431 101.137 64.1431ZM101.142 62.9844C99.8356 62.9844 99.2262 61.8441 99.2262 60.4822C99.2262 59.125 99.8356 57.9709 101.142 57.9709C102.439 57.9709 103.049 59.125 103.049 60.4822C103.049 61.8441 102.439 62.9844 101.142 62.9844ZM109.294 56.9091H107.839V55.2102H106.459V56.9091H105.42V58.017H106.459V62.2042C106.454 63.4922 107.438 64.1154 108.527 64.0923C108.966 64.0877 109.261 64.0046 109.423 63.9446L109.174 62.8043C109.081 62.8228 108.91 62.8643 108.689 62.8643C108.241 62.8643 107.839 62.7166 107.839 61.918V58.017H109.294V56.9091ZM113.731 64.1431C115.73 64.1431 117.037 62.6797 117.037 60.4869C117.037 58.2802 115.73 56.8168 113.731 56.8168C111.732 56.8168 110.426 58.2802 110.426 60.4869C110.426 62.6797 111.732 64.1431 113.731 64.1431ZM113.736 62.9844C112.429 62.9844 111.82 61.8441 111.82 60.4822C111.82 59.125 112.429 57.9709 113.736 57.9709C115.033 57.9709 115.642 59.125 115.642 60.4822C115.642 61.8441 115.033 62.9844 113.736 62.9844Z" fill="#303030"/>
<path d="M76.6539 21.6904H74.078C73.9247 21.6904 73.8005 21.7924 73.8005 21.9191V23.2181C73.8005 23.3445 73.9247 23.4469 74.078 23.4469H76.6535C76.8069 23.4469 76.931 23.3449 76.931 23.2181V21.9191C76.931 21.7927 76.8069 21.6904 76.6539 21.6904Z" fill="#153068"/>
<path d="M92.1073 23.0722H87.7516C87.3714 21.5269 86.225 19.875 85.6786 19.875H80.3214C79.775 19.875 78.6286 21.5269 78.2484 23.0722H73.8928C72.7089 23.0722 71.75 24.0263 71.75 25.2041V37.9935C71.75 39.171 72.7089 40.125 73.8928 40.125H92.1069C93.2911 40.125 94.25 39.171 94.25 37.9935V25.2041C94.25 24.0263 93.2911 23.0722 92.1073 23.0722ZM83 37.1404C79.9227 37.1404 77.4286 34.6594 77.4286 31.5986C77.4286 28.5375 79.9231 26.0565 83 26.0565C86.0769 26.0565 88.5714 28.5375 88.5714 31.5986C88.571 34.6594 86.0769 37.1404 83 37.1404ZM91.0359 27.8685C90.1483 27.8685 89.4286 27.1526 89.4286 26.2699C89.4286 25.3871 90.1483 24.6713 91.0359 24.6713C91.9235 24.6713 92.6431 25.3871 92.6431 26.2699C92.6427 27.1526 91.9231 27.8685 91.0359 27.8685Z" fill="#204289"/>
<path d="M83.0001 37.1404C86.0771 37.1404 88.5715 34.6591 88.5715 31.5982C88.5715 28.5374 86.0771 26.0561 83.0001 26.0561C79.9231 26.0561 77.4287 28.5374 77.4287 31.5982C77.4287 34.6591 79.9231 37.1404 83.0001 37.1404Z" fill="#F46524"/>
<path d="M91.036 27.8685C91.9236 27.8685 92.6432 27.1528 92.6432 26.2699C92.6432 25.387 91.9236 24.6713 91.036 24.6713C90.1483 24.6713 89.4287 25.387 89.4287 26.2699C89.4287 27.1528 90.1483 27.8685 91.036 27.8685Z" fill="#153068"/>
<path d="M85.8927 30.1973C86.3638 30.1973 86.7458 29.8173 86.7458 29.3486C86.7458 28.8799 86.3638 28.5 85.8927 28.5C85.4215 28.5 85.0396 28.8799 85.0396 29.3486C85.0396 29.8173 85.4215 30.1973 85.8927 30.1973Z" fill="white"/>
<path d="M78.1782 26.1116H73.8923C73.6853 26.1116 73.5173 25.9436 73.5173 25.7366C73.5173 25.5296 73.6853 25.3616 73.8923 25.3616H78.1782C78.3852 25.3616 78.5532 25.5296 78.5532 25.7366C78.5532 25.9436 78.3852 26.1116 78.1782 26.1116Z" fill="white"/>
</svg>
