<svg width="21" height="23" viewBox="0 0 21 23" fill="none" xmlns="http://www.w3.org/2000/svg">
<path fill-rule="evenodd" clip-rule="evenodd" d="M7.40561 20.4501V17.3052C7.40559 16.5053 8.05772 15.8553 8.86571 15.8499H11.8254C12.6372 15.8499 13.2954 16.5015 13.2954 17.3052V20.4599C13.2952 21.1391 13.8427 21.6941 14.5286 21.7101H16.5017C18.4686 21.7101 20.0632 20.1315 20.0632 18.1842V9.23773C20.0527 8.47167 19.6893 7.75231 19.0766 7.28435L12.3285 1.90279C11.1464 0.965753 9.46583 0.965753 8.28364 1.90279L1.56517 7.29412C0.95011 7.76018 0.586188 8.48074 0.578613 9.2475V18.1842C0.578613 20.1315 2.17314 21.7101 4.14009 21.7101H6.11321C6.81608 21.7101 7.38587 21.146 7.38587 20.4501" fill="#204289"/>
<path d="M7.40561 20.4501V17.3052C7.40559 16.5053 8.05772 15.8553 8.86571 15.8499H11.8254C12.6372 15.8499 13.2954 16.5015 13.2954 17.3052V17.3052V20.4599C13.2952 21.1391 13.8427 21.6941 14.5286 21.7101H16.5017C18.4686 21.7101 20.0632 20.1315 20.0632 18.1842V18.1842V9.23773C20.0527 8.47167 19.6893 7.75231 19.0766 7.28435L12.3285 1.90279C11.1464 0.965753 9.46583 0.965753 8.28364 1.90279L1.56517 7.29412C0.95011 7.76018 0.586188 8.48074 0.578613 9.2475V18.1842C0.578613 20.1315 2.17314 21.7101 4.14009 21.7101H6.11321C6.81608 21.7101 7.38587 21.146 7.38587 20.4501V20.4501" stroke="#204289" stroke-linecap="round" stroke-linejoin="round"/>
</svg>
