<svg width="36" height="36" viewBox="0 0 36 36" fill="none" xmlns="http://www.w3.org/2000/svg">
<path d="M14.0309 32.3041V28.3168C14.0309 27.3026 14.8577 26.4785 15.8821 26.4717H19.6346C20.6639 26.4717 21.4983 27.2978 21.4983 28.3168V28.3168V32.3165C21.498 33.1776 22.1922 33.8813 23.0618 33.9015H25.5634C28.0572 33.9015 30.0789 31.9001 30.0789 29.4312V29.4312V18.0884C30.0656 17.1171 29.6049 16.2051 28.8281 15.6118L20.2725 8.78873C18.7736 7.6007 16.643 7.6007 15.1441 8.78873L6.62606 15.6242C5.84625 16.2151 5.38485 17.1286 5.37524 18.1008V29.4312C5.37524 31.9001 7.39688 33.9015 9.89069 33.9015H12.3923C13.2835 33.9015 14.0059 33.1863 14.0059 32.3041V32.3041" stroke="#292D32" stroke-width="1.5" stroke-linecap="round" stroke-linejoin="round"/>
</svg>
