<svg width="33" height="30" viewBox="0 0 33 30" fill="none" xmlns="http://www.w3.org/2000/svg">
<path d="M16.3632 5.55501L16.4969 5.81823L16.6306 5.55501C18.0729 2.71632 20.8175 0.804297 23.95 0.804297C26.6261 0.804297 28.7963 1.673 30.2435 3.29963C31.6728 4.90622 32.3855 7.19168 32.3411 10.1127C32.2623 15.3125 28.584 19.965 24.8111 23.3761C21.0445 26.7813 17.2186 28.9179 16.9096 29.0879L16.9095 29.088C16.7789 29.1601 16.6375 29.1957 16.4968 29.1957C16.3576 29.1957 16.2179 29.1609 16.0882 29.0904L16.0882 29.0904C15.78 28.9229 11.9631 26.8179 8.20041 23.4282C4.43162 20.0331 0.751173 15.3795 0.652545 10.1169L0.532557 10.1191L0.652545 10.1169C0.6006 7.34729 1.34457 5.02979 2.78724 3.40192L2.68052 3.30734L2.78724 3.40192C4.2681 1.73094 6.4867 0.804297 9.04378 0.804297C12.1763 0.804297 14.9209 2.71632 16.3632 5.55501ZM16.4176 26.9156L16.4941 26.9606L16.5704 26.9152C18.3134 25.8777 24.3753 22.0499 27.888 17.0376L28.0535 16.8015H27.7652H17.2812H17.1698L17.1376 16.9082L15.5901 22.0394L15.7216 22.0791L15.5901 22.0394C15.4586 22.4756 15.0953 22.7552 14.7013 22.7552C14.3073 22.7552 13.944 22.4756 13.8125 22.0394L13.6689 22.0828L13.8125 22.0394L11.2538 13.5553L11.1102 13.0791L10.9666 13.5553L10.2035 16.0858L10.3471 16.1291L10.2035 16.0858C10.072 16.522 9.70881 16.8016 9.3147 16.8016H5.20471H4.91791L5.0815 17.0372C8.58891 22.0876 14.6694 25.8876 16.4176 26.9156ZM29.1848 14.6961H29.2794L29.3202 14.6108C30.0121 13.162 30.4413 11.6397 30.4649 10.0768C30.4998 7.77976 29.9875 5.99136 28.9158 4.78694C27.5288 3.22814 25.4357 2.90991 23.9499 2.90991C20.3436 2.90991 17.435 6.14735 17.435 10.0948C17.435 10.6907 17.0012 11.1476 16.4968 11.1476C15.9924 11.1476 15.5586 10.6907 15.5586 10.0948C15.5586 6.14735 12.6499 2.90991 9.04367 2.90991C7.00673 2.90991 5.25237 3.60557 4.11746 4.88635C3.01509 6.13015 2.48749 7.88185 2.52856 10.0726C2.55791 11.6421 2.98194 13.1646 3.66393 14.6101L3.70451 14.6961H3.79959H8.53027H8.64171L8.67388 14.5894L10.2214 9.4583L10.2214 9.45829C10.3529 9.02218 10.7162 8.74252 11.1102 8.74252C11.5042 8.74252 11.8675 9.02218 11.999 9.45829L11.999 9.4583L14.5577 17.9424L14.7013 18.4186L14.8449 17.9424L15.608 15.4119L15.4644 15.3686L15.608 15.4119C15.7395 14.9758 16.1027 14.6961 16.4968 14.6961H29.1848Z" fill="#292D32" stroke="white" stroke-width="0.3"/>
</svg>
